<mxfile host="app.diagrams.net" modified="2022-12-19T10:34:15.672Z" agent="5.0 (Windows NT 10.0; Win64; x64) AppleWebKit/537.36 (KHTML, like Gecko) Chrome/108.0.0.0 Safari/537.36 Edg/108.0.1462.54" etag="gGpKM0nXcfzHQ7Lj5zJD" compressed="false" version="20.7.4" type="device">
  <diagram id="3cx_Q2YuP-NYIw85P7rN" name="Seite-1">
    <mxGraphModel dx="2310" dy="805" grid="1" gridSize="10" guides="1" tooltips="1" connect="1" arrows="1" fold="1" page="1" pageScale="1" pageWidth="827" pageHeight="1169" math="0" shadow="0">
      <root>
        <mxCell id="0" />
        <mxCell id="1" parent="0" />
        <mxCell id="UfdUkFykv_ufSkHr16o0-74" style="edgeStyle=none;rounded=0;orthogonalLoop=1;jettySize=auto;html=1;" parent="1" edge="1">
          <mxGeometry relative="1" as="geometry">
            <mxPoint x="940.3956439066083" y="1535.0282043495654" as="targetPoint" />
          </mxGeometry>
        </mxCell>
        <mxCell id="UfdUkFykv_ufSkHr16o0-75" style="edgeStyle=none;rounded=0;orthogonalLoop=1;jettySize=auto;html=1;entryX=0;entryY=0.5;entryDx=0;entryDy=0;" parent="1" edge="1">
          <mxGeometry relative="1" as="geometry">
            <mxPoint x="936" y="1630" as="targetPoint" />
          </mxGeometry>
        </mxCell>
        <mxCell id="1OSOrPw2H3rCjoD6WSqI-3" value="" style="group" vertex="1" connectable="0" parent="1">
          <mxGeometry x="10" y="20" width="1016" height="960" as="geometry" />
        </mxCell>
        <mxCell id="P9MY8U7rtAjO0KuWllwK-2" value="Empfänger" style="shape=umlActor;verticalLabelPosition=bottom;verticalAlign=top;html=1;outlineConnect=0;" parent="1OSOrPw2H3rCjoD6WSqI-3" vertex="1">
          <mxGeometry y="290" width="30" height="60" as="geometry" />
        </mxCell>
        <mxCell id="1OSOrPw2H3rCjoD6WSqI-2" value="" style="group" vertex="1" connectable="0" parent="1OSOrPw2H3rCjoD6WSqI-3">
          <mxGeometry x="90" width="926" height="960" as="geometry" />
        </mxCell>
        <mxCell id="P9MY8U7rtAjO0KuWllwK-5" value="&lt;span style=&quot;font-weight: normal;&quot;&gt;Will Nachricht empfangen&lt;/span&gt;" style="ellipse;whiteSpace=wrap;html=1;fillColor=#d5e8d4;strokeColor=#82b366;fontStyle=1" parent="1OSOrPw2H3rCjoD6WSqI-2" vertex="1">
          <mxGeometry y="590" width="120" height="80" as="geometry" />
        </mxCell>
        <mxCell id="UfdUkFykv_ufSkHr16o0-58" value="&lt;span style=&quot;font-weight: normal;&quot;&gt;active,&lt;br&gt;NOWAIT, Polling&lt;/span&gt;" style="ellipse;whiteSpace=wrap;html=1;fillColor=#d5e8d4;strokeColor=#82b366;fontStyle=1" parent="1OSOrPw2H3rCjoD6WSqI-2" vertex="1">
          <mxGeometry x="200" y="550" width="120" height="80" as="geometry" />
        </mxCell>
        <mxCell id="UfdUkFykv_ufSkHr16o0-61" style="edgeStyle=none;rounded=0;orthogonalLoop=1;jettySize=auto;html=1;entryX=0;entryY=0.5;entryDx=0;entryDy=0;" parent="1OSOrPw2H3rCjoD6WSqI-2" source="P9MY8U7rtAjO0KuWllwK-5" target="UfdUkFykv_ufSkHr16o0-58" edge="1">
          <mxGeometry relative="1" as="geometry" />
        </mxCell>
        <mxCell id="UfdUkFykv_ufSkHr16o0-60" value="&lt;span style=&quot;font-weight: normal;&quot;&gt;passive,&lt;br&gt;wait&lt;br&gt;&lt;/span&gt;" style="ellipse;whiteSpace=wrap;html=1;fillColor=#d5e8d4;strokeColor=#82b366;fontStyle=1" parent="1OSOrPw2H3rCjoD6WSqI-2" vertex="1">
          <mxGeometry x="200" y="720" width="120" height="80" as="geometry" />
        </mxCell>
        <mxCell id="UfdUkFykv_ufSkHr16o0-62" style="edgeStyle=none;rounded=0;orthogonalLoop=1;jettySize=auto;html=1;" parent="1OSOrPw2H3rCjoD6WSqI-2" source="P9MY8U7rtAjO0KuWllwK-5" target="UfdUkFykv_ufSkHr16o0-60" edge="1">
          <mxGeometry relative="1" as="geometry" />
        </mxCell>
        <mxCell id="UfdUkFykv_ufSkHr16o0-66" value="&lt;span style=&quot;font-weight: 400;&quot;&gt;Erhalte älteste Nachricht&lt;/span&gt;" style="ellipse;whiteSpace=wrap;html=1;fillColor=#d5e8d4;strokeColor=#82b366;fontStyle=1" parent="1OSOrPw2H3rCjoD6WSqI-2" vertex="1">
          <mxGeometry x="806" y="550" width="120" height="80" as="geometry" />
        </mxCell>
        <mxCell id="UfdUkFykv_ufSkHr16o0-68" value="&lt;span style=&quot;font-weight: 400;&quot;&gt;Message Queue leer&lt;/span&gt;" style="ellipse;whiteSpace=wrap;html=1;fillColor=#f8cecc;strokeColor=#b85450;fontStyle=1" parent="1OSOrPw2H3rCjoD6WSqI-2" vertex="1">
          <mxGeometry x="806" y="400" width="120" height="80" as="geometry" />
        </mxCell>
        <mxCell id="UfdUkFykv_ufSkHr16o0-65" style="edgeStyle=none;rounded=0;orthogonalLoop=1;jettySize=auto;html=1;entryX=0;entryY=0.5;entryDx=0;entryDy=0;" parent="1OSOrPw2H3rCjoD6WSqI-2" source="UfdUkFykv_ufSkHr16o0-58" target="UfdUkFykv_ufSkHr16o0-68" edge="1">
          <mxGeometry relative="1" as="geometry">
            <mxPoint x="480" y="440" as="targetPoint" />
            <Array as="points">
              <mxPoint x="260" y="440" />
            </Array>
          </mxGeometry>
        </mxCell>
        <mxCell id="UfdUkFykv_ufSkHr16o0-57" value="&lt;span style=&quot;font-weight: 400;&quot;&gt;Nachricht wurde gekürzt, empfangsseitig&lt;/span&gt;" style="ellipse;whiteSpace=wrap;html=1;fillColor=#f8cecc;strokeColor=#b85450;fontStyle=1" parent="1OSOrPw2H3rCjoD6WSqI-2" vertex="1">
          <mxGeometry x="806" y="880" width="120" height="80" as="geometry" />
        </mxCell>
        <mxCell id="UfdUkFykv_ufSkHr16o0-79" style="edgeStyle=none;rounded=0;orthogonalLoop=1;jettySize=auto;html=1;" parent="1OSOrPw2H3rCjoD6WSqI-2" source="UfdUkFykv_ufSkHr16o0-77" target="UfdUkFykv_ufSkHr16o0-66" edge="1">
          <mxGeometry relative="1" as="geometry" />
        </mxCell>
        <mxCell id="UfdUkFykv_ufSkHr16o0-77" value="&lt;span style=&quot;font-weight: 400;&quot;&gt;Nachricht wird übersetzt&lt;/span&gt;" style="ellipse;whiteSpace=wrap;html=1;fillColor=#d5e8d4;strokeColor=#82b366;fontStyle=1" parent="1OSOrPw2H3rCjoD6WSqI-2" vertex="1">
          <mxGeometry x="360" y="550" width="120" height="80" as="geometry" />
        </mxCell>
        <mxCell id="UfdUkFykv_ufSkHr16o0-78" style="edgeStyle=none;rounded=0;orthogonalLoop=1;jettySize=auto;html=1;entryX=0;entryY=0.5;entryDx=0;entryDy=0;" parent="1OSOrPw2H3rCjoD6WSqI-2" source="UfdUkFykv_ufSkHr16o0-58" target="UfdUkFykv_ufSkHr16o0-77" edge="1">
          <mxGeometry relative="1" as="geometry" />
        </mxCell>
        <mxCell id="UfdUkFykv_ufSkHr16o0-83" style="edgeStyle=none;rounded=0;orthogonalLoop=1;jettySize=auto;html=1;entryX=0;entryY=0.5;entryDx=0;entryDy=0;exitX=1;exitY=0.5;exitDx=0;exitDy=0;" parent="1OSOrPw2H3rCjoD6WSqI-2" source="UfdUkFykv_ufSkHr16o0-87" target="UfdUkFykv_ufSkHr16o0-57" edge="1">
          <mxGeometry relative="1" as="geometry">
            <mxPoint x="806" y="1074" as="targetPoint" />
          </mxGeometry>
        </mxCell>
        <mxCell id="UfdUkFykv_ufSkHr16o0-84" value="&lt;span style=&quot;font-weight: 400;&quot;&gt;Warte auf eintreffende&amp;nbsp; Nachricht&lt;/span&gt;" style="ellipse;whiteSpace=wrap;html=1;fillColor=#d5e8d4;strokeColor=#82b366;fontStyle=1" parent="1OSOrPw2H3rCjoD6WSqI-2" vertex="1">
          <mxGeometry x="360" y="720" width="120" height="80" as="geometry" />
        </mxCell>
        <mxCell id="UfdUkFykv_ufSkHr16o0-70" style="edgeStyle=none;rounded=0;orthogonalLoop=1;jettySize=auto;html=1;entryX=0;entryY=0.5;entryDx=0;entryDy=0;" parent="1OSOrPw2H3rCjoD6WSqI-2" source="UfdUkFykv_ufSkHr16o0-60" target="UfdUkFykv_ufSkHr16o0-84" edge="1">
          <mxGeometry relative="1" as="geometry">
            <mxPoint x="510" y="680" as="targetPoint" />
          </mxGeometry>
        </mxCell>
        <mxCell id="UfdUkFykv_ufSkHr16o0-85" value="&lt;span style=&quot;font-weight: 400;&quot;&gt;Nachricht wurde gekürzt, senderseitig&lt;/span&gt;" style="ellipse;whiteSpace=wrap;html=1;fillColor=#f8cecc;strokeColor=#b85450;fontStyle=1" parent="1OSOrPw2H3rCjoD6WSqI-2" vertex="1">
          <mxGeometry x="806" y="770" width="120" height="80" as="geometry" />
        </mxCell>
        <mxCell id="UfdUkFykv_ufSkHr16o0-86" value="&lt;span style=&quot;font-weight: 400;&quot;&gt;Nachricht wurde empfangen&lt;/span&gt;" style="ellipse;whiteSpace=wrap;html=1;fillColor=#d5e8d4;strokeColor=#82b366;fontStyle=1" parent="1OSOrPw2H3rCjoD6WSqI-2" vertex="1">
          <mxGeometry x="806" y="650" width="120" height="80" as="geometry" />
        </mxCell>
        <mxCell id="UfdUkFykv_ufSkHr16o0-87" value="&lt;span style=&quot;font-weight: 400;&quot;&gt;Nachricht wird übersetzt&lt;/span&gt;" style="ellipse;whiteSpace=wrap;html=1;fillColor=#d5e8d4;strokeColor=#82b366;fontStyle=1" parent="1OSOrPw2H3rCjoD6WSqI-2" vertex="1">
          <mxGeometry x="520" y="720" width="120" height="80" as="geometry" />
        </mxCell>
        <mxCell id="UfdUkFykv_ufSkHr16o0-89" style="edgeStyle=none;rounded=0;orthogonalLoop=1;jettySize=auto;html=1;entryX=0;entryY=0.5;entryDx=0;entryDy=0;" parent="1OSOrPw2H3rCjoD6WSqI-2" source="UfdUkFykv_ufSkHr16o0-84" target="UfdUkFykv_ufSkHr16o0-87" edge="1">
          <mxGeometry relative="1" as="geometry" />
        </mxCell>
        <mxCell id="UfdUkFykv_ufSkHr16o0-82" style="edgeStyle=none;rounded=0;orthogonalLoop=1;jettySize=auto;html=1;entryX=0;entryY=0.5;entryDx=0;entryDy=0;exitX=1;exitY=0.5;exitDx=0;exitDy=0;" parent="1OSOrPw2H3rCjoD6WSqI-2" source="UfdUkFykv_ufSkHr16o0-87" target="UfdUkFykv_ufSkHr16o0-85" edge="1">
          <mxGeometry relative="1" as="geometry" />
        </mxCell>
        <mxCell id="UfdUkFykv_ufSkHr16o0-81" style="edgeStyle=none;rounded=0;orthogonalLoop=1;jettySize=auto;html=1;exitX=1;exitY=0.5;exitDx=0;exitDy=0;" parent="1OSOrPw2H3rCjoD6WSqI-2" source="UfdUkFykv_ufSkHr16o0-87" target="UfdUkFykv_ufSkHr16o0-86" edge="1">
          <mxGeometry relative="1" as="geometry" />
        </mxCell>
        <mxCell id="UfdUkFykv_ufSkHr16o0-90" value="&lt;span style=&quot;font-weight: normal;&quot;&gt;Markiert Kanal zum zerstören&lt;/span&gt;" style="ellipse;whiteSpace=wrap;html=1;fillColor=#d5e8d4;strokeColor=#82b366;fontStyle=1" parent="1OSOrPw2H3rCjoD6WSqI-2" vertex="1">
          <mxGeometry y="770" width="120" height="80" as="geometry" />
        </mxCell>
        <mxCell id="UfdUkFykv_ufSkHr16o0-16" value="Sender bekommt Referenz auf den gewünschten Kanal" style="ellipse;whiteSpace=wrap;html=1;fillColor=#d5e8d4;strokeColor=#82b366;" parent="1OSOrPw2H3rCjoD6WSqI-2" vertex="1">
          <mxGeometry x="806" y="80" width="120" height="80" as="geometry" />
        </mxCell>
        <mxCell id="UfdUkFykv_ufSkHr16o0-26" value="" style="group" parent="1OSOrPw2H3rCjoD6WSqI-2" vertex="1" connectable="0">
          <mxGeometry x="806" y="190" width="120" height="110" as="geometry" />
        </mxCell>
        <mxCell id="UfdUkFykv_ufSkHr16o0-27" value="Verbindung wird zurückgewiesen" style="ellipse;whiteSpace=wrap;html=1;fillColor=#f8cecc;strokeColor=#b85450;" parent="UfdUkFykv_ufSkHr16o0-26" vertex="1">
          <mxGeometry y="30" width="120" height="80" as="geometry" />
        </mxCell>
        <mxCell id="UfdUkFykv_ufSkHr16o0-28" value="Prio 1" style="text;html=1;strokeColor=none;fillColor=none;align=center;verticalAlign=middle;whiteSpace=wrap;rounded=0;" parent="UfdUkFykv_ufSkHr16o0-26" vertex="1">
          <mxGeometry x="80" width="40" height="50" as="geometry" />
        </mxCell>
        <mxCell id="UfdUkFykv_ufSkHr16o0-18" style="edgeStyle=none;rounded=0;orthogonalLoop=1;jettySize=auto;html=1;entryX=0;entryY=0.5;entryDx=0;entryDy=0;" parent="1OSOrPw2H3rCjoD6WSqI-2" source="UfdUkFykv_ufSkHr16o0-19" target="UfdUkFykv_ufSkHr16o0-27" edge="1">
          <mxGeometry relative="1" as="geometry" />
        </mxCell>
        <mxCell id="UfdUkFykv_ufSkHr16o0-102" style="edgeStyle=none;rounded=0;orthogonalLoop=1;jettySize=auto;html=1;entryX=0;entryY=0.5;entryDx=0;entryDy=0;" parent="1OSOrPw2H3rCjoD6WSqI-2" source="UfdUkFykv_ufSkHr16o0-29" target="UfdUkFykv_ufSkHr16o0-16" edge="1">
          <mxGeometry relative="1" as="geometry" />
        </mxCell>
        <mxCell id="UfdUkFykv_ufSkHr16o0-29" value="Kanal im Normalzustand" style="ellipse;whiteSpace=wrap;html=1;fillColor=#d5e8d4;strokeColor=#82b366;" parent="1OSOrPw2H3rCjoD6WSqI-2" vertex="1">
          <mxGeometry x="360" width="120" height="80" as="geometry" />
        </mxCell>
        <mxCell id="UfdUkFykv_ufSkHr16o0-111" style="edgeStyle=none;rounded=0;orthogonalLoop=1;jettySize=auto;html=1;entryX=0;entryY=0.5;entryDx=0;entryDy=0;" parent="1OSOrPw2H3rCjoD6WSqI-2" source="UfdUkFykv_ufSkHr16o0-104" target="UfdUkFykv_ufSkHr16o0-27" edge="1">
          <mxGeometry relative="1" as="geometry" />
        </mxCell>
        <mxCell id="UfdUkFykv_ufSkHr16o0-104" value="Empfängerplatz vergeben" style="ellipse;whiteSpace=wrap;html=1;fillColor=#f8cecc;strokeColor=#b85450;" parent="1OSOrPw2H3rCjoD6WSqI-2" vertex="1">
          <mxGeometry x="360" y="310" width="120" height="80" as="geometry" />
        </mxCell>
        <mxCell id="P9MY8U7rtAjO0KuWllwK-22" style="edgeStyle=none;rounded=0;orthogonalLoop=1;jettySize=auto;html=1;entryX=0;entryY=0.5;entryDx=0;entryDy=0;" parent="1OSOrPw2H3rCjoD6WSqI-2" source="P9MY8U7rtAjO0KuWllwK-18" target="UfdUkFykv_ufSkHr16o0-29" edge="1">
          <mxGeometry relative="1" as="geometry">
            <mxPoint x="690" y="230" as="targetPoint" />
          </mxGeometry>
        </mxCell>
        <mxCell id="UfdUkFykv_ufSkHr16o0-103" style="edgeStyle=none;rounded=0;orthogonalLoop=1;jettySize=auto;html=1;entryX=0;entryY=0.5;entryDx=0;entryDy=0;" parent="1OSOrPw2H3rCjoD6WSqI-2" source="P9MY8U7rtAjO0KuWllwK-18" target="UfdUkFykv_ufSkHr16o0-104" edge="1">
          <mxGeometry relative="1" as="geometry">
            <mxPoint x="800" y="540" as="targetPoint" />
          </mxGeometry>
        </mxCell>
        <mxCell id="UfdUkFykv_ufSkHr16o0-23" value="" style="group" parent="1OSOrPw2H3rCjoD6WSqI-2" vertex="1" connectable="0">
          <mxGeometry x="520" y="65" width="140" height="110" as="geometry" />
        </mxCell>
        <mxCell id="UfdUkFykv_ufSkHr16o0-24" value="Kanal wird initialisiert" style="ellipse;whiteSpace=wrap;html=1;fillColor=#d5e8d4;strokeColor=#82b366;" parent="UfdUkFykv_ufSkHr16o0-23" vertex="1">
          <mxGeometry y="30" width="120" height="80" as="geometry" />
        </mxCell>
        <mxCell id="UfdUkFykv_ufSkHr16o0-25" value="Prio 2" style="text;html=1;strokeColor=none;fillColor=none;align=center;verticalAlign=middle;whiteSpace=wrap;rounded=0;" parent="UfdUkFykv_ufSkHr16o0-23" vertex="1">
          <mxGeometry x="100" y="25" width="40" height="20" as="geometry" />
        </mxCell>
        <mxCell id="UfdUkFykv_ufSkHr16o0-115" style="edgeStyle=none;rounded=0;orthogonalLoop=1;jettySize=auto;html=1;entryX=0;entryY=0.5;entryDx=0;entryDy=0;" parent="1OSOrPw2H3rCjoD6WSqI-2" source="UfdUkFykv_ufSkHr16o0-24" target="UfdUkFykv_ufSkHr16o0-16" edge="1">
          <mxGeometry relative="1" as="geometry" />
        </mxCell>
        <mxCell id="UfdUkFykv_ufSkHr16o0-21" value="Kanal ist zum löschen getaggt&amp;nbsp;" style="ellipse;whiteSpace=wrap;html=1;fillColor=#f8cecc;strokeColor=#b85450;" parent="1OSOrPw2H3rCjoD6WSqI-2" vertex="1">
          <mxGeometry x="360" y="215" width="120" height="80" as="geometry" />
        </mxCell>
        <mxCell id="UfdUkFykv_ufSkHr16o0-20" style="edgeStyle=none;rounded=0;orthogonalLoop=1;jettySize=auto;html=1;" parent="1OSOrPw2H3rCjoD6WSqI-2" source="UfdUkFykv_ufSkHr16o0-21" target="UfdUkFykv_ufSkHr16o0-27" edge="1">
          <mxGeometry relative="1" as="geometry">
            <mxPoint x="980" y="270" as="targetPoint" />
          </mxGeometry>
        </mxCell>
        <mxCell id="P9MY8U7rtAjO0KuWllwK-31" style="edgeStyle=none;rounded=0;orthogonalLoop=1;jettySize=auto;html=1;entryX=0;entryY=0.5;entryDx=0;entryDy=0;" parent="1OSOrPw2H3rCjoD6WSqI-2" source="P9MY8U7rtAjO0KuWllwK-18" target="UfdUkFykv_ufSkHr16o0-21" edge="1">
          <mxGeometry relative="1" as="geometry">
            <mxPoint x="670" y="210" as="targetPoint" />
          </mxGeometry>
        </mxCell>
        <mxCell id="UfdUkFykv_ufSkHr16o0-19" value="Kanal ist nicht initialisiert" style="ellipse;whiteSpace=wrap;html=1;fillColor=#f8cecc;strokeColor=#b85450;" parent="1OSOrPw2H3rCjoD6WSqI-2" vertex="1">
          <mxGeometry x="360" y="110" width="120" height="80" as="geometry" />
        </mxCell>
        <mxCell id="UfdUkFykv_ufSkHr16o0-17" style="edgeStyle=none;rounded=0;orthogonalLoop=1;jettySize=auto;html=1;" parent="1OSOrPw2H3rCjoD6WSqI-2" source="UfdUkFykv_ufSkHr16o0-19" target="UfdUkFykv_ufSkHr16o0-24" edge="1">
          <mxGeometry relative="1" as="geometry" />
        </mxCell>
        <mxCell id="UfdUkFykv_ufSkHr16o0-37" style="rounded=0;orthogonalLoop=1;jettySize=auto;html=1;entryX=0;entryY=0.5;entryDx=0;entryDy=0;" parent="1OSOrPw2H3rCjoD6WSqI-2" source="P9MY8U7rtAjO0KuWllwK-18" target="UfdUkFykv_ufSkHr16o0-19" edge="1">
          <mxGeometry relative="1" as="geometry" />
        </mxCell>
        <mxCell id="P9MY8U7rtAjO0KuWllwK-9" value="Will sich in einem Chanel anmelden&lt;span style=&quot;color: rgba(0, 0, 0, 0); font-family: monospace; font-size: 0px; text-align: start;&quot;&gt;%3CmxGraphModel%3E%3Croot%3E%3CmxCell%20id%3D%220%22%2F%3E%3CmxCell%20id%3D%221%22%20parent%3D%220%22%2F%3E%3CmxCell%20id%3D%222%22%20value%3D%22Will%20eine%20Nachricht%20senden%22%20style%3D%22ellipse%3BwhiteSpace%3Dwrap%3Bhtml%3D1%3BfillColor%3D%23d5e8d4%3BstrokeColor%3D%2382b366%3B%22%20vertex%3D%221%22%20parent%3D%221%22%3E%3CmxGeometry%20x%3D%22160%22%20y%3D%22160%22%20width%3D%22120%22%20height%3D%2280%22%20as%3D%22geometry%22%2F%3E%3C%2FmxCell%3E%3C%2Froot%3E%3C%2FmxGraphModel%3E&lt;/span&gt;" style="ellipse;whiteSpace=wrap;html=1;fillColor=#d5e8d4;strokeColor=#82b366;" parent="1OSOrPw2H3rCjoD6WSqI-2" vertex="1">
          <mxGeometry y="215" width="120" height="80" as="geometry" />
        </mxCell>
        <mxCell id="P9MY8U7rtAjO0KuWllwK-18" value="&lt;span style=&quot;color: rgba(0, 0, 0, 0); font-family: monospace; font-size: 0px; text-align: start;&quot;&gt;%3CmxGraphModel%3E%3Croot%3E%3CmxCell%20id%3D%220%22%2F%3E%3CmxCell%20id%3D%221%22%20parent%3D%220%22%2F%3E%3CmxCell%20id%3D%222%22%20value%3D%22Will%20sich%20in%20einem%20Chanel%20anmelden%26lt%3Bspan%20style%3D%26quot%3Bcolor%3A%20rgba(0%2C%200%2C%200%2C%200)%3B%20font-family%3A%20monospace%3B%20font-size%3A%200px%3B%20text-align%3A%20start%3B%26quot%3B%26gt%3B%253CmxGraphModel%253E%253Croot%253E%253CmxCell%2520id%253D%25220%2522%252F%253E%253CmxCell%2520id%253D%25221%2522%2520parent%253D%25220%2522%252F%253E%253CmxCell%2520id%253D%25222%2522%2520value%253D%2522Will%2520eine%2520Nachricht%2520senden%2522%2520style%253D%2522ellipse%253BwhiteSpace%253Dwrap%253Bhtml%253D1%253BfillColor%253D%2523d5e8d4%253BstrokeColor%253D%252382b366%253B%2522%2520vertex%253D%25221%2522%2520parent%253D%25221%2522%253E%253CmxGeometry%2520x%253D%2522160%2522%2520y%253D%2522160%2522%2520width%253D%2522120%2522%2520height%253D%252280%2522%2520as%253D%2522geometry%2522%252F%253E%253C%252FmxCell%253E%253C%252Froot%253E%253C%252FmxGraphModel%253E%26lt%3B%2Fspan%26gt%3B%22%20style%3D%22ellipse%3BwhiteSpace%3Dwrap%3Bhtml%3D1%3BfillColor%3D%23d5e8d4%3BstrokeColor%3D%2382b366%3B%22%20vertex%3D%221%22%20parent%3D%221%22%3E%3CmxGeometry%20x%3D%22160%22%20y%3D%22-30%22%20width%3D%22120%22%20height%3D%2280%22%20as%3D%22geometry%22%2F%3E%3C%2FmxCell%3E%3C%2Froot%3E%3C%2FmxGraphModel%3E&lt;/span&gt;Schickt der ConnectUnit eine Verbindungsanfrage&amp;nbsp;" style="ellipse;whiteSpace=wrap;html=1;fillColor=#d5e8d4;strokeColor=#82b366;" parent="1OSOrPw2H3rCjoD6WSqI-2" vertex="1">
          <mxGeometry x="200" y="215" width="120" height="80" as="geometry" />
        </mxCell>
        <mxCell id="P9MY8U7rtAjO0KuWllwK-19" style="edgeStyle=none;rounded=0;orthogonalLoop=1;jettySize=auto;html=1;entryX=0;entryY=0.5;entryDx=0;entryDy=0;" parent="1OSOrPw2H3rCjoD6WSqI-2" source="P9MY8U7rtAjO0KuWllwK-9" target="P9MY8U7rtAjO0KuWllwK-18" edge="1">
          <mxGeometry relative="1" as="geometry" />
        </mxCell>
        <mxCell id="P9MY8U7rtAjO0KuWllwK-6" style="rounded=0;orthogonalLoop=1;jettySize=auto;html=1;exitX=1;exitY=0.3333333333333333;exitDx=0;exitDy=0;exitPerimeter=0;" parent="1OSOrPw2H3rCjoD6WSqI-3" source="P9MY8U7rtAjO0KuWllwK-2" target="P9MY8U7rtAjO0KuWllwK-5" edge="1">
          <mxGeometry relative="1" as="geometry" />
        </mxCell>
        <mxCell id="UfdUkFykv_ufSkHr16o0-91" style="edgeStyle=none;rounded=0;orthogonalLoop=1;jettySize=auto;html=1;entryX=0;entryY=0;entryDx=0;entryDy=0;exitX=1;exitY=0.3333333333333333;exitDx=0;exitDy=0;exitPerimeter=0;" parent="1OSOrPw2H3rCjoD6WSqI-3" source="P9MY8U7rtAjO0KuWllwK-2" target="UfdUkFykv_ufSkHr16o0-90" edge="1">
          <mxGeometry relative="1" as="geometry" />
        </mxCell>
        <mxCell id="P9MY8U7rtAjO0KuWllwK-10" style="edgeStyle=none;rounded=0;orthogonalLoop=1;jettySize=auto;html=1;exitX=1;exitY=0.3333333333333333;exitDx=0;exitDy=0;exitPerimeter=0;entryX=0;entryY=0.5;entryDx=0;entryDy=0;" parent="1OSOrPw2H3rCjoD6WSqI-3" source="P9MY8U7rtAjO0KuWllwK-2" target="P9MY8U7rtAjO0KuWllwK-9" edge="1">
          <mxGeometry relative="1" as="geometry" />
        </mxCell>
      </root>
    </mxGraphModel>
  </diagram>
</mxfile>
